<?xml version="1.0" encoding="utf-8" standalone="no"?>
<!DOCTYPE svg PUBLIC "-//W3C//DTD SVG 1.1//EN"
  "http://www.w3.org/Graphics/SVG/1.1/DTD/svg11.dtd">
<svg xmlns:xlink="http://www.w3.org/1999/xlink" width="542.75328pt" height="305.109079pt" viewBox="0 0 542.75328 305.109079" xmlns="http://www.w3.org/2000/svg" version="1.1">
 <metadata>
  <rdf:RDF xmlns:dc="http://purl.org/dc/elements/1.1/" xmlns:cc="http://creativecommons.org/ns#" xmlns:rdf="http://www.w3.org/1999/02/22-rdf-syntax-ns#">
   <cc:Work>
    <dc:type rdf:resource="http://purl.org/dc/dcmitype/StillImage"/>
    <dc:date>2026-06-07T19:59:50.899123</dc:date>
    <dc:format>image/svg+xml</dc:format>
    <dc:creator>
     <cc:Agent>
      <dc:title>Matplotlib v3.10.9, https://matplotlib.org/</dc:title>
     </cc:Agent>
    </dc:creator>
   </cc:Work>
  </rdf:RDF>
 </metadata>
 <defs>
  <style type="text/css">*{stroke-linejoin: round; stroke-linecap: butt}</style>
 </defs>
 <g id="figure_1">
  <g id="patch_1">
   <path d="M 0 305.109079 
L 542.75328 305.109079 
L 542.75328 -0 
L 0 -0 
z
" style="fill: #ffffff"/>
  </g>
  <g id="axes_1">
   <g id="patch_2">
    <path d="M 74.659392 176.376031 
L 522.344448 176.376031 
Q 531.779328 176.376031 531.779328 171.068911 
L 531.779328 101.014927 
Q 531.779328 95.707807 522.344448 95.707807 
L 74.659392 95.707807 
Q 65.224512 95.707807 65.224512 101.014927 
L 65.224512 171.068911 
Q 65.224512 176.376031 74.659392 176.376031 
z
" clip-path="url(#pc0449c009a)" style="fill: #f5f8fc; opacity: 0.55; stroke: #0f4d92; stroke-width: 0.55; stroke-linejoin: miter"/>
   </g>
   <g id="patch_3">
    <path d="M 74.659392 263.943511 
L 522.344448 263.943511 
Q 531.779328 263.943511 531.779328 258.636391 
L 531.779328 188.582407 
Q 531.779328 183.275287 522.344448 183.275287 
L 74.659392 183.275287 
Q 65.224512 183.275287 65.224512 188.582407 
L 65.224512 258.636391 
Q 65.224512 263.943511 74.659392 263.943511 
z
" clip-path="url(#pc0449c009a)" style="fill: #f7f6fb; opacity: 0.55; stroke: #7884b4; stroke-width: 0.55; stroke-linejoin: miter"/>
   </g>
   <g id="patch_4">
    <path d="M 134.57088 157.270399 
C 143.328438 157.270399 151.728488 155.313228 157.921017 151.829931 
C 164.113545 148.346633 167.59296 143.621605 167.59296 138.695479 
C 167.59296 133.769352 164.113545 129.044324 157.921017 125.561027 
C 151.728488 122.077729 143.328438 120.120559 134.57088 120.120559 
C 125.813322 120.120559 117.413272 122.077729 111.220743 125.561027 
C 105.028215 129.044324 101.5488 133.769352 101.5488 138.695479 
C 101.5488 143.621605 105.028215 148.346633 111.220743 151.829931 
C 117.413272 155.313228 125.813322 157.270399 134.57088 157.270399 
z
" clip-path="url(#pc0449c009a)" style="fill: #f0f3f8; stroke: #3d3d3d; stroke-linejoin: miter"/>
   </g>
   <g id="patch_5">
    <path d="M 134.57088 145.860091 
C 137.948795 145.860091 141.188815 145.105182 143.577361 143.761624 
C 145.965908 142.418067 147.307968 140.595556 147.307968 138.695479 
C 147.307968 136.795401 145.965908 134.972891 143.577361 133.629333 
C 141.188815 132.285775 137.948795 131.530867 134.57088 131.530867 
C 131.192965 131.530867 127.952945 132.285775 125.564399 133.629333 
C 123.175852 134.972891 121.833792 136.795401 121.833792 138.695479 
C 121.833792 140.595556 123.175852 142.418067 125.564399 143.761624 
C 127.952945 145.105182 131.192965 145.860091 134.57088 145.860091 
z
" clip-path="url(#pc0449c009a)" style="fill: #ffffff; stroke: #8a8a8a; stroke-width: 0.8; stroke-linejoin: miter"/>
   </g>
   <g id="patch_6">
    <path d="M 194.010624 160.454671 
L 268.546176 160.454671 
Q 277.037568 160.454671 277.037568 155.678263 
L 277.037568 121.712695 
Q 277.037568 116.936287 268.546176 116.936287 
L 194.010624 116.936287 
Q 185.519232 116.936287 185.519232 121.712695 
L 185.519232 155.678263 
Q 185.519232 160.454671 194.010624 160.454671 
z
" style="fill: #f8f8f8; stroke: #dadada; stroke-width: 0.8; stroke-linejoin: miter"/>
   </g>
   <g id="patch_7">
    <path d="M 169.594071 138.695479 
Q 179.387125 138.695479 188.062145 138.695479 
" style="fill: none; stroke: #8a8a8a; stroke-linecap: round"/>
    <path d="M 184.862145 137.095479 
L 188.062145 138.695479 
L 184.862145 140.295479 
z
" style="fill: #8a8a8a; stroke: #8a8a8a; stroke-linecap: round"/>
   </g>
   <g id="patch_8">
    <path d="M 273.377175 138.695479 
Q 285.529017 138.695479 296.562824 138.695479 
" style="fill: none; stroke: #8a8a8a; stroke-linecap: round"/>
    <path d="M 293.362824 137.095479 
L 296.562824 138.695479 
L 293.362824 140.295479 
z
" style="fill: #8a8a8a; stroke: #8a8a8a; stroke-linecap: round"/>
   </g>
   <g id="patch_9">
    <path d="M 307.229184 136.572631 
L 353.460096 136.572631 
Q 361.951488 136.572631 361.951488 131.796223 
L 361.951488 109.771675 
Q 361.951488 104.995267 353.460096 104.995267 
L 307.229184 104.995267 
Q 298.737792 104.995267 298.737792 109.771675 
L 298.737792 131.796223 
Q 298.737792 136.572631 307.229184 136.572631 
z
" style="fill: #fafafa; stroke: #dadada; stroke-width: 0.8; stroke-linejoin: miter"/>
   </g>
   <g id="patch_10">
    <path d="M 368.555904 136.572631 
L 414.786816 136.572631 
Q 423.278208 136.572631 423.278208 131.796223 
L 423.278208 109.771675 
Q 423.278208 104.995267 414.786816 104.995267 
L 368.555904 104.995267 
Q 360.064512 104.995267 360.064512 109.771675 
L 360.064512 131.796223 
Q 360.064512 136.572631 368.555904 136.572631 
z
" style="fill: #fafafa; stroke: #dadada; stroke-width: 0.8; stroke-linejoin: miter"/>
   </g>
   <g id="patch_11">
    <path d="M 307.229184 169.742131 
L 353.460096 169.742131 
Q 361.951488 169.742131 361.951488 164.965723 
L 361.951488 142.941175 
Q 361.951488 138.164767 353.460096 138.164767 
L 307.229184 138.164767 
Q 298.737792 138.164767 298.737792 142.941175 
L 298.737792 164.965723 
Q 298.737792 169.742131 307.229184 169.742131 
z
" style="fill: #fafafa; stroke: #dadada; stroke-width: 0.8; stroke-linejoin: miter"/>
   </g>
   <g id="patch_12">
    <path d="M 368.555904 169.742131 
L 414.786816 169.742131 
Q 423.278208 169.742131 423.278208 164.965723 
L 423.278208 142.941175 
Q 423.278208 138.164767 414.786816 138.164767 
L 368.555904 138.164767 
Q 360.064512 138.164767 360.064512 142.941175 
L 360.064512 164.965723 
Q 360.064512 169.742131 368.555904 169.742131 
z
" style="fill: #fafafa; stroke: #dadada; stroke-width: 0.8; stroke-linejoin: miter"/>
   </g>
   <g id="patch_13">
    <path d="M 448.752384 161.781451 
L 513.853056 161.781451 
Q 522.344448 161.781451 522.344448 157.005043 
L 522.344448 120.385915 
Q 522.344448 115.609507 513.853056 115.609507 
L 448.752384 115.609507 
Q 440.260992 115.609507 440.260992 120.385915 
L 440.260992 157.005043 
Q 440.260992 161.781451 448.752384 161.781451 
z
" style="fill: #fff3e9; stroke: #d99b5c; stroke-width: 0.8; stroke-linejoin: miter"/>
   </g>
   <g id="patch_14">
    <path d="M 419.617815 138.695479 
Q 431.769657 138.695479 442.803464 138.695479 
" style="fill: none; stroke: #8a8a8a; stroke-linecap: round"/>
    <path d="M 439.603464 137.095479 
L 442.803464 138.695479 
L 439.603464 140.295479 
z
" style="fill: #8a8a8a; stroke: #8a8a8a; stroke-linecap: round"/>
   </g>
   <g id="patch_15">
    <path d="M 110.98368 238.203979 
L 158.15808 238.203979 
L 158.15808 214.321939 
L 110.98368 214.321939 
z
" clip-path="url(#pc0449c009a)" style="fill: #e7f0ea; stroke: #3d3d3d; stroke-linejoin: miter"/>
   </g>
   <g id="patch_16">
    <path d="M 158.15808 231.570079 
L 163.819008 231.570079 
L 163.819008 220.955839 
L 158.15808 220.955839 
z
" clip-path="url(#pc0449c009a)" style="fill: #3d3d3d; stroke: #3d3d3d; stroke-width: 0.8; stroke-linejoin: miter"/>
   </g>
   <g id="patch_17">
    <path d="M 194.010624 248.022151 
L 268.546176 248.022151 
Q 277.037568 248.022151 277.037568 243.245743 
L 277.037568 209.280175 
Q 277.037568 204.503767 268.546176 204.503767 
L 194.010624 204.503767 
Q 185.519232 204.503767 185.519232 209.280175 
L 185.519232 243.245743 
Q 185.519232 248.022151 194.010624 248.022151 
z
" style="fill: #f8f8f8; stroke: #dadada; stroke-width: 0.8; stroke-linejoin: miter"/>
   </g>
   <g id="patch_18">
    <path d="M 169.594071 226.262959 
Q 179.387125 226.262959 188.062145 226.262959 
" style="fill: none; stroke: #8a8a8a; stroke-linecap: round"/>
    <path d="M 184.862145 224.662959 
L 188.062145 226.262959 
L 184.862145 227.862959 
z
" style="fill: #8a8a8a; stroke: #8a8a8a; stroke-linecap: round"/>
   </g>
   <g id="patch_19">
    <path d="M 273.377175 226.262959 
Q 285.529017 226.262959 296.562824 226.262959 
" style="fill: none; stroke: #8a8a8a; stroke-linecap: round"/>
    <path d="M 293.362824 224.662959 
L 296.562824 226.262959 
L 293.362824 227.862959 
z
" style="fill: #8a8a8a; stroke: #8a8a8a; stroke-linecap: round"/>
   </g>
   <g id="patch_20">
    <path d="M 307.229184 224.140111 
L 353.460096 224.140111 
Q 361.951488 224.140111 361.951488 219.363703 
L 361.951488 197.339155 
Q 361.951488 192.562747 353.460096 192.562747 
L 307.229184 192.562747 
Q 298.737792 192.562747 298.737792 197.339155 
L 298.737792 219.363703 
Q 298.737792 224.140111 307.229184 224.140111 
z
" style="fill: #fafafa; stroke: #dadada; stroke-width: 0.8; stroke-linejoin: miter"/>
   </g>
   <g id="patch_21">
    <path d="M 368.555904 224.140111 
L 414.786816 224.140111 
Q 423.278208 224.140111 423.278208 219.363703 
L 423.278208 197.339155 
Q 423.278208 192.562747 414.786816 192.562747 
L 368.555904 192.562747 
Q 360.064512 192.562747 360.064512 197.339155 
L 360.064512 219.363703 
Q 360.064512 224.140111 368.555904 224.140111 
z
" style="fill: #fafafa; stroke: #dadada; stroke-width: 0.8; stroke-linejoin: miter"/>
   </g>
   <g id="patch_22">
    <path d="M 307.229184 257.309611 
L 353.460096 257.309611 
Q 361.951488 257.309611 361.951488 252.533203 
L 361.951488 230.508655 
Q 361.951488 225.732247 353.460096 225.732247 
L 307.229184 225.732247 
Q 298.737792 225.732247 298.737792 230.508655 
L 298.737792 252.533203 
Q 298.737792 257.309611 307.229184 257.309611 
z
" style="fill: #fafafa; stroke: #dadada; stroke-width: 0.8; stroke-linejoin: miter"/>
   </g>
   <g id="patch_23">
    <path d="M 368.555904 257.309611 
L 414.786816 257.309611 
Q 423.278208 257.309611 423.278208 252.533203 
L 423.278208 230.508655 
Q 423.278208 225.732247 414.786816 225.732247 
L 368.555904 225.732247 
Q 360.064512 225.732247 360.064512 230.508655 
L 360.064512 252.533203 
Q 360.064512 257.309611 368.555904 257.309611 
z
" style="fill: #fafafa; stroke: #dadada; stroke-width: 0.8; stroke-linejoin: miter"/>
   </g>
   <g id="patch_24">
    <path d="M 448.752384 249.348931 
L 513.853056 249.348931 
Q 522.344448 249.348931 522.344448 244.572523 
L 522.344448 207.953395 
Q 522.344448 203.176987 513.853056 203.176987 
L 448.752384 203.176987 
Q 440.260992 203.176987 440.260992 207.953395 
L 440.260992 244.572523 
Q 440.260992 249.348931 448.752384 249.348931 
z
" style="fill: #fff3e9; stroke: #d99b5c; stroke-width: 0.8; stroke-linejoin: miter"/>
   </g>
   <g id="patch_25">
    <path d="M 419.617815 226.262959 
Q 431.769657 226.262959 442.803464 226.262959 
" style="fill: none; stroke: #8a8a8a; stroke-linecap: round"/>
    <path d="M 439.603464 224.662959 
L 442.803464 226.262959 
L 439.603464 227.862959 
z
" style="fill: #8a8a8a; stroke: #8a8a8a; stroke-linecap: round"/>
   </g>
   <g id="line2d_1">
    <path d="M 134.57088 138.695479 
L 165.23424 138.695479 
" clip-path="url(#pc0449c009a)" style="fill: none; stroke: #484878; stroke-width: 0.7; stroke-linecap: square"/>
   </g>
   <g id="line2d_2">
    <path d="M 134.57088 138.695479 
L 149.90256 123.758151 
" clip-path="url(#pc0449c009a)" style="fill: none; stroke: #484878; stroke-width: 0.7; stroke-linecap: square"/>
   </g>
   <g id="line2d_3">
    <path d="M 134.57088 138.695479 
L 119.2392 123.758151 
" clip-path="url(#pc0449c009a)" style="fill: none; stroke: #484878; stroke-width: 0.7; stroke-linecap: square"/>
   </g>
   <g id="line2d_4">
    <path d="M 134.57088 138.695479 
L 103.90752 138.695479 
" clip-path="url(#pc0449c009a)" style="fill: none; stroke: #484878; stroke-width: 0.7; stroke-linecap: square"/>
   </g>
   <g id="line2d_5">
    <path d="M 134.57088 138.695479 
L 119.2392 153.632806 
" clip-path="url(#pc0449c009a)" style="fill: none; stroke: #484878; stroke-width: 0.7; stroke-linecap: square"/>
   </g>
   <g id="line2d_6">
    <path d="M 134.57088 138.695479 
L 149.90256 153.632806 
" clip-path="url(#pc0449c009a)" style="fill: none; stroke: #484878; stroke-width: 0.7; stroke-linecap: square"/>
   </g>
   <g id="line2d_7">
    <path d="M 307.51223 128.850771 
L 308.025318 128.835159 
L 308.538406 128.806612 
L 309.051494 128.769647 
L 309.564582 128.725872 
L 310.07767 128.676219 
L 310.590758 128.621316 
L 311.103845 128.561625 
L 311.616933 128.497502 
L 312.130021 128.429235 
L 312.643109 128.357062 
L 313.156197 128.281184 
L 313.669285 128.201774 
L 314.182373 128.118982 
L 314.69546 128.032941 
L 315.208548 127.94377 
L 315.721636 127.851575 
L 316.234724 127.756451 
L 316.747812 127.658487 
L 317.2609 127.557763 
L 317.773988 127.454352 
L 318.287075 127.348322 
L 318.800163 127.239737 
L 319.313251 127.128654 
L 319.826339 127.01513 
L 320.339427 126.899216 
L 320.852515 126.780959 
L 321.365603 126.660406 
L 321.87869 126.537599 
L 322.391778 126.412579 
L 322.904866 126.285385 
L 323.417954 126.156053 
L 323.931042 126.024617 
L 324.44413 125.891112 
L 324.957218 125.755568 
L 325.470305 125.618015 
L 325.983393 125.478484 
L 326.496481 125.337 
L 327.009569 125.193592 
L 327.522657 125.048284 
L 328.035745 124.901101 
L 328.548833 124.752066 
L 329.06192 124.601203 
L 329.575008 124.448533 
L 330.088096 124.294077 
L 330.601184 124.137856 
L 331.114272 123.979889 
L 331.62736 123.820196 
L 332.140447 123.658795 
L 332.653535 123.495703 
L 333.166623 123.330939 
L 333.679711 123.164519 
L 334.192799 122.996459 
L 334.705887 122.826775 
L 335.218975 122.655483 
L 335.732062 122.482598 
L 336.24515 122.308133 
L 336.758238 122.132104 
L 337.271326 121.954524 
L 337.784414 121.775406 
L 338.297502 121.594764 
L 338.81059 121.41261 
L 339.323677 121.228956 
L 339.836765 121.043816 
L 340.349853 120.857201 
L 340.862941 120.669121 
L 341.376029 120.47959 
L 341.889117 120.288617 
L 342.402205 120.096213 
L 342.915292 119.90239 
L 343.42838 119.707157 
L 343.941468 119.510524 
L 344.454556 119.312502 
L 344.967644 119.113099 
L 345.480732 118.912326 
L 345.99382 118.710192 
L 346.506907 118.506706 
L 347.019995 118.301877 
L 347.533083 118.095713 
L 348.046171 117.888224 
L 348.559259 117.679417 
L 349.072347 117.469301 
L 349.585435 117.257883 
L 350.098522 117.045173 
L 350.61161 116.831178 
L 351.124698 116.615905 
L 351.637786 116.399361 
L 352.150874 116.181555 
L 352.663962 115.962494 
L 353.17705 115.742185 
" style="fill: none; stroke: #0f4d92; stroke-width: 1.05; stroke-linecap: square"/>
   </g>
   <g id="line2d_8">
    <path d="M 368.83895 128.850771 
L 369.352038 128.699057 
L 369.865126 128.530968 
L 370.378214 128.356481 
L 370.891302 128.178931 
L 371.40439 128.000454 
L 371.917478 127.822679 
L 372.430565 127.646951 
L 372.943653 127.474415 
L 373.456741 127.306069 
L 373.969829 127.142774 
L 374.482917 126.985275 
L 374.996005 126.834201 
L 375.509093 126.690069 
L 376.02218 126.553288 
L 376.535268 126.424156 
L 377.048356 126.302864 
L 377.561444 126.189496 
L 378.074532 126.084031 
L 378.58762 125.986345 
L 379.100708 125.896215 
L 379.613795 125.813319 
L 380.126883 125.737248 
L 380.639971 125.667503 
L 381.153059 125.603507 
L 381.666147 125.544607 
L 382.179235 125.490087 
L 382.692323 125.439172 
L 383.20541 125.391036 
L 383.718498 125.344813 
L 384.231586 125.299606 
L 384.744674 125.254497 
L 385.257762 125.208556 
L 385.77085 125.160849 
L 386.283938 125.110452 
L 386.797025 125.056459 
L 387.310113 124.997988 
L 387.823201 124.934198 
L 388.336289 124.864289 
L 388.849377 124.787518 
L 389.362465 124.703202 
L 389.875553 124.610727 
L 390.38864 124.509555 
L 390.901728 124.399227 
L 391.414816 124.279371 
L 391.927904 124.149706 
L 392.440992 124.010042 
L 392.95408 123.860284 
L 393.467167 123.700434 
L 393.980255 123.530589 
L 394.493343 123.350942 
L 395.006431 123.16178 
L 395.519519 122.96348 
L 396.032607 122.756505 
L 396.545695 122.541401 
L 397.058782 122.318791 
L 397.57187 122.089368 
L 398.084958 121.85389 
L 398.598046 121.613169 
L 399.111134 121.368066 
L 399.624222 121.119479 
L 400.13731 120.86834 
L 400.650397 120.615597 
L 401.163485 120.362211 
L 401.676573 120.109144 
L 402.189661 119.857349 
L 402.702749 119.607761 
L 403.215837 119.361288 
L 403.728925 119.118799 
L 404.242012 118.881118 
L 404.7551 118.649016 
L 405.268188 118.423201 
L 405.781276 118.204312 
L 406.294364 117.992913 
L 406.807452 117.789484 
L 407.32054 117.594424 
L 407.833627 117.408036 
L 408.346715 117.230534 
L 408.859803 117.062034 
L 409.372891 116.902558 
L 409.885979 116.752029 
L 410.399067 116.610275 
L 410.912155 116.477031 
L 411.425242 116.351939 
L 411.93833 116.234554 
L 412.451418 116.124348 
L 412.964506 116.020717 
L 413.477594 115.922982 
L 413.990682 115.830404 
L 414.50377 115.742185 
" style="fill: none; stroke: #0f4d92; stroke-width: 1.05; stroke-linecap: square"/>
   </g>
   <g id="line2d_9">
    <path d="M 307.51223 162.020271 
L 308.025318 162.01621 
L 308.538406 162.006129 
L 309.051494 161.99093 
L 309.564582 161.971026 
L 310.07767 161.946684 
L 310.590758 161.918101 
L 311.103845 161.885428 
L 311.616933 161.84879 
L 312.130021 161.808293 
L 312.643109 161.764027 
L 313.156197 161.71607 
L 313.669285 161.664492 
L 314.182373 161.609356 
L 314.69546 161.550718 
L 315.208548 161.488631 
L 315.721636 161.42314 
L 316.234724 161.35429 
L 316.747812 161.282122 
L 317.2609 161.206672 
L 317.773988 161.127977 
L 318.287075 161.04607 
L 318.800163 160.960982 
L 319.313251 160.872741 
L 319.826339 160.781377 
L 320.339427 160.686916 
L 320.852515 160.589382 
L 321.365603 160.488801 
L 321.87869 160.385194 
L 322.391778 160.278584 
L 322.904866 160.168991 
L 323.417954 160.056437 
L 323.931042 159.940939 
L 324.44413 159.822518 
L 324.957218 159.70119 
L 325.470305 159.576974 
L 325.983393 159.449885 
L 326.496481 159.31994 
L 327.009569 159.187155 
L 327.522657 159.051545 
L 328.035745 158.913124 
L 328.548833 158.771906 
L 329.06192 158.627906 
L 329.575008 158.481137 
L 330.088096 158.331611 
L 330.601184 158.179341 
L 331.114272 158.02434 
L 331.62736 157.86662 
L 332.140447 157.706192 
L 332.653535 157.543068 
L 333.166623 157.377259 
L 333.679711 157.208775 
L 334.192799 157.037627 
L 334.705887 156.863826 
L 335.218975 156.687381 
L 335.732062 156.508303 
L 336.24515 156.326601 
L 336.758238 156.142285 
L 337.271326 155.955363 
L 337.784414 155.765845 
L 338.297502 155.57374 
L 338.81059 155.379056 
L 339.323677 155.181802 
L 339.836765 154.981986 
L 340.349853 154.779617 
L 340.862941 154.574702 
L 341.376029 154.36725 
L 341.889117 154.157267 
L 342.402205 153.944762 
L 342.915292 153.729743 
L 343.42838 153.512216 
L 343.941468 153.292188 
L 344.454556 153.069667 
L 344.967644 152.84466 
L 345.480732 152.617174 
L 345.99382 152.387214 
L 346.506907 152.154789 
L 347.019995 151.919904 
L 347.533083 151.682566 
L 348.046171 151.442781 
L 348.559259 151.200556 
L 349.072347 150.955896 
L 349.585435 150.708808 
L 350.098522 150.459297 
L 350.61161 150.20737 
L 351.124698 149.953032 
L 351.637786 149.696289 
L 352.150874 149.437146 
L 352.663962 149.17561 
L 353.17705 148.911685 
" style="fill: none; stroke: #0f4d92; stroke-width: 1.05; stroke-linecap: square"/>
   </g>
   <g id="line2d_10">
    <path d="M 368.83895 162.020271 
L 369.352038 162.020166 
L 369.865126 162.020043 
L 370.378214 162.019898 
L 370.891302 162.019728 
L 371.40439 162.019528 
L 371.917478 162.019294 
L 372.430565 162.019019 
L 372.943653 162.018696 
L 373.456741 162.018317 
L 373.969829 162.017871 
L 374.482917 162.017349 
L 374.996005 162.016735 
L 375.509093 162.016014 
L 376.02218 162.015169 
L 376.535268 162.014176 
L 377.048356 162.01301 
L 377.561444 162.011642 
L 378.074532 162.010035 
L 378.58762 162.00815 
L 379.100708 162.005937 
L 379.613795 162.003339 
L 380.126883 162.000291 
L 380.639971 161.996714 
L 381.153059 161.992516 
L 381.666147 161.987591 
L 382.179235 161.981812 
L 382.692323 161.975035 
L 383.20541 161.967086 
L 383.718498 161.957765 
L 384.231586 161.946838 
L 384.744674 161.934031 
L 385.257762 161.919026 
L 385.77085 161.901453 
L 386.283938 161.880879 
L 386.797025 161.856804 
L 387.310113 161.828651 
L 387.823201 161.795749 
L 388.336289 161.757329 
L 388.849377 161.712507 
L 389.362465 161.660272 
L 389.875553 161.599477 
L 390.38864 161.528823 
L 390.901728 161.44685 
L 391.414816 161.351936 
L 391.927904 161.242288 
L 392.440992 161.115956 
L 392.95408 160.970846 
L 393.467167 160.804752 
L 393.980255 160.615401 
L 394.493343 160.400526 
L 395.006431 160.157949 
L 395.519519 159.885701 
L 396.032607 159.582158 
L 396.545695 159.246198 
L 397.058782 158.877362 
L 397.57187 158.476027 
L 398.084958 158.043538 
L 398.598046 157.582318 
L 399.111134 157.0959 
L 399.624222 156.58889 
L 400.13731 156.066838 
L 400.650397 155.53602 
L 401.163485 155.003152 
L 401.676573 154.475052 
L 402.189661 153.958298 
L 402.702749 153.458908 
L 403.215837 152.982074 
L 403.728925 152.531985 
L 404.242012 152.111729 
L 404.7551 151.723289 
L 405.268188 151.367609 
L 405.781276 151.044711 
L 406.294364 150.753853 
L 406.807452 150.493691 
L 407.32054 150.262446 
L 407.833627 150.058049 
L 408.346715 149.878275 
L 408.859803 149.720845 
L 409.372891 149.583505 
L 409.885979 149.464091 
L 410.399067 149.360562 
L 410.912155 149.271029 
L 411.425242 149.19377 
L 411.93833 149.127225 
L 412.451418 149.070001 
L 412.964506 149.020862 
L 413.477594 148.978714 
L 413.990682 148.942601 
L 414.50377 148.911685 
" style="fill: none; stroke: #0f4d92; stroke-width: 1.05; stroke-linecap: square"/>
   </g>
   <g id="line2d_11">
    <path d="M 307.51223 216.418251 
L 308.025318 216.408285 
L 308.538406 216.388039 
L 309.051494 216.360451 
L 309.564582 216.326665 
L 310.07767 216.287368 
L 310.590758 216.243035 
L 311.103845 216.194024 
L 311.616933 216.140615 
L 312.130021 216.083039 
L 312.643109 216.021488 
L 313.156197 215.956125 
L 313.669285 215.887095 
L 314.182373 215.814523 
L 314.69546 215.738521 
L 315.208548 215.659188 
L 315.721636 215.576616 
L 316.234724 215.490887 
L 316.747812 215.402078 
L 317.2609 215.310257 
L 317.773988 215.215489 
L 318.287075 215.117834 
L 318.800163 215.017348 
L 319.313251 214.914083 
L 319.826339 214.808088 
L 320.339427 214.69941 
L 320.852515 214.588091 
L 321.365603 214.474172 
L 321.87869 214.357694 
L 322.391778 214.238692 
L 322.904866 214.117202 
L 323.417954 213.993258 
L 323.931042 213.866891 
L 324.44413 213.738132 
L 324.957218 213.60701 
L 325.470305 213.473553 
L 325.983393 213.337789 
L 326.496481 213.199743 
L 327.009569 213.05944 
L 327.522657 212.916904 
L 328.035745 212.772157 
L 328.548833 212.625223 
L 329.06192 212.476123 
L 329.575008 212.324878 
L 330.088096 212.171507 
L 330.601184 212.01603 
L 331.114272 211.858466 
L 331.62736 211.698833 
L 332.140447 211.53715 
L 332.653535 211.373432 
L 333.166623 211.207698 
L 333.679711 211.039962 
L 334.192799 210.870242 
L 334.705887 210.698551 
L 335.218975 210.524906 
L 335.732062 210.349321 
L 336.24515 210.171809 
L 336.758238 209.992386 
L 337.271326 209.811064 
L 337.784414 209.627856 
L 338.297502 209.442775 
L 338.81059 209.255834 
L 339.323677 209.067046 
L 339.836765 208.876421 
L 340.349853 208.683973 
L 340.862941 208.489711 
L 341.376029 208.293648 
L 341.889117 208.095795 
L 342.402205 207.896161 
L 342.915292 207.694759 
L 343.42838 207.491597 
L 343.941468 207.286686 
L 344.454556 207.080037 
L 344.967644 206.871658 
L 345.480732 206.661559 
L 345.99382 206.44975 
L 346.506907 206.236239 
L 347.019995 206.021036 
L 347.533083 205.80415 
L 348.046171 205.585589 
L 348.559259 205.365362 
L 349.072347 205.143476 
L 349.585435 204.919941 
L 350.098522 204.694764 
L 350.61161 204.467954 
L 351.124698 204.239518 
L 351.637786 204.009463 
L 352.150874 203.777798 
L 352.663962 203.544529 
L 353.17705 203.309665 
" style="fill: none; stroke: #7884b4; stroke-width: 1.05; stroke-linecap: square"/>
   </g>
   <g id="line2d_12">
    <path d="M 368.83895 209.863958 
L 369.352038 207.597766 
L 369.865126 205.611022 
L 370.378214 204.148717 
L 370.891302 203.391171 
L 371.40439 203.431797 
L 371.917478 204.265586 
L 372.430565 205.789722 
L 372.943653 207.81626 
L 373.456741 210.095305 
L 373.969829 212.345821 
L 374.482917 214.290294 
L 374.996005 215.688946 
L 375.509093 216.369307 
L 376.02218 216.24748 
L 376.535268 215.338487 
L 377.048356 213.754419 
L 377.561444 211.69061 
L 378.074532 209.401553 
L 378.58762 207.169516 
L 379.100708 205.269736 
L 379.613795 203.936479 
L 380.126883 203.334152 
L 380.639971 203.537029 
L 381.153059 204.520092 
L 381.666147 206.162119 
L 382.179235 208.260627 
L 382.692323 210.556845 
L 383.20541 212.767622 
L 383.718498 214.620342 
L 384.231586 215.886542 
L 384.744674 216.410085 
L 385.257762 216.126412 
L 385.77085 215.070502 
L 386.283938 213.372563 
L 386.797025 211.24197 
L 387.310113 208.941452 
L 387.823201 206.754689 
L 388.336289 204.951338 
L 388.849377 203.753771 
L 389.362465 203.309665 
L 389.875553 203.673782 
L 390.38864 204.801222 
L 390.901728 206.552959 
L 391.414816 208.712982 
L 391.927904 211.014934 
L 392.440992 213.174957 
L 392.95408 214.926694 
L 393.467167 216.054134 
L 393.980255 216.418251 
L 394.493343 215.974145 
L 395.006431 214.776578 
L 395.519519 212.973226 
L 396.032607 210.786464 
L 396.545695 208.485946 
L 397.058782 206.355353 
L 397.57187 204.657414 
L 398.084958 203.601504 
L 398.598046 203.317831 
L 399.111134 203.841374 
L 399.624222 205.107574 
L 400.13731 206.960294 
L 400.650397 209.171071 
L 401.163485 211.467289 
L 401.676573 213.565797 
L 402.189661 215.207824 
L 402.702749 216.190887 
L 403.215837 216.393764 
L 403.728925 215.791437 
L 404.242012 214.45818 
L 404.7551 212.5584 
L 405.268188 210.326363 
L 405.781276 208.037306 
L 406.294364 205.973497 
L 406.807452 204.389429 
L 407.32054 203.480436 
L 407.833627 203.358609 
L 408.346715 204.03897 
L 408.859803 205.437622 
L 409.372891 207.382095 
L 409.885979 209.632611 
L 410.399067 211.911656 
L 410.912155 213.938194 
L 411.425242 215.46233 
L 411.93833 216.296119 
L 412.451418 216.336745 
L 412.964506 215.579198 
L 413.477594 214.116893 
L 413.990682 212.13015 
L 414.50377 209.863958 
" style="fill: none; stroke: #7884b4; stroke-width: 1.05; stroke-linecap: square"/>
   </g>
   <g id="line2d_13">
    <path d="M 307.51223 249.587751 
L 308.025318 249.399395 
L 308.538406 249.198236 
L 309.051494 248.993407 
L 309.564582 248.787926 
L 310.07767 248.583801 
L 310.590758 248.382612 
L 311.103845 248.185684 
L 311.616933 247.994154 
L 312.130021 247.808999 
L 312.643109 247.631052 
L 313.156197 247.461003 
L 313.669285 247.299401 
L 314.182373 247.146656 
L 314.69546 247.00304 
L 315.208548 246.868682 
L 315.721636 246.743576 
L 316.234724 246.627578 
L 316.747812 246.520414 
L 317.2609 246.421682 
L 317.773988 246.33086 
L 318.287075 246.247313 
L 318.800163 246.170301 
L 319.313251 246.098992 
L 319.826339 246.03247 
L 320.339427 245.96975 
L 320.852515 245.909787 
L 321.365603 245.851494 
L 321.87869 245.793755 
L 322.391778 245.735437 
L 322.904866 245.675408 
L 323.417954 245.612548 
L 323.931042 245.545767 
L 324.44413 245.474018 
L 324.957218 245.396308 
L 325.470305 245.311713 
L 325.983393 245.219392 
L 326.496481 245.118593 
L 327.009569 245.008665 
L 327.522657 244.889067 
L 328.035745 244.759374 
L 328.548833 244.619283 
L 329.06192 244.468618 
L 329.575008 244.307329 
L 330.088096 244.135498 
L 330.601184 243.95333 
L 331.114272 243.761162 
L 331.62736 243.559447 
L 332.140447 243.348757 
L 332.653535 243.129772 
L 333.166623 242.903271 
L 333.679711 242.670125 
L 334.192799 242.431284 
L 334.705887 242.187766 
L 335.218975 241.940643 
L 335.732062 241.69103 
L 336.24515 241.440068 
L 336.758238 241.188912 
L 337.271326 240.938716 
L 337.784414 240.690618 
L 338.297502 240.445725 
L 338.81059 240.205101 
L 339.323677 239.969752 
L 339.836765 239.740615 
L 340.349853 239.518544 
L 340.862941 239.304302 
L 341.376029 239.098548 
L 341.889117 238.901833 
L 342.402205 238.714588 
L 342.915292 238.537125 
L 343.42838 238.369627 
L 343.941468 238.212148 
L 344.454556 238.064614 
L 344.967644 237.926822 
L 345.480732 237.798443 
L 345.99382 237.679027 
L 346.506907 237.568007 
L 347.019995 237.46471 
L 347.533083 237.368358 
L 348.046171 237.278087 
L 348.559259 237.192953 
L 349.072347 237.111941 
L 349.585435 237.033985 
L 350.098522 236.957978 
L 350.61161 236.882783 
L 351.124698 236.807252 
L 351.637786 236.730238 
L 352.150874 236.650612 
L 352.663962 236.567273 
L 353.17705 236.479165 
" style="fill: none; stroke: #7884b4; stroke-width: 1.05; stroke-linecap: square"/>
   </g>
   <g id="line2d_14">
    <path d="M 368.83895 236.479165 
L 369.352038 236.596843 
L 369.865126 236.722821 
L 370.378214 236.852135 
L 370.891302 236.983663 
L 371.40439 237.116862 
L 371.917478 237.25141 
L 372.430565 237.387088 
L 372.943653 237.523743 
L 373.456741 237.661256 
L 373.969829 237.799537 
L 374.482917 237.938512 
L 374.996005 238.078121 
L 375.509093 238.218314 
L 376.02218 238.359048 
L 376.535268 238.500285 
L 377.048356 238.641995 
L 377.561444 238.784148 
L 378.074532 238.92672 
L 378.58762 239.069689 
L 379.100708 239.213035 
L 379.613795 239.356739 
L 380.126883 239.500787 
L 380.639971 239.645162 
L 381.153059 239.789852 
L 381.666147 239.934844 
L 382.179235 240.080125 
L 382.692323 240.225687 
L 383.20541 240.371518 
L 383.718498 240.51761 
L 384.231586 240.663955 
L 384.744674 240.810543 
L 385.257762 240.957368 
L 385.77085 241.104423 
L 386.283938 241.251701 
L 386.797025 241.399195 
L 387.310113 241.546901 
L 387.823201 241.694811 
L 388.336289 241.842922 
L 388.849377 241.991228 
L 389.362465 242.139724 
L 389.875553 242.288406 
L 390.38864 242.437269 
L 390.901728 242.58631 
L 391.414816 242.735524 
L 391.927904 242.884907 
L 392.440992 243.034457 
L 392.95408 243.18417 
L 393.467167 243.334042 
L 393.980255 243.48407 
L 394.493343 243.634251 
L 395.006431 243.784582 
L 395.519519 243.935061 
L 396.032607 244.085685 
L 396.545695 244.236451 
L 397.058782 244.387356 
L 397.57187 244.538399 
L 398.084958 244.689577 
L 398.598046 244.840887 
L 399.111134 244.992328 
L 399.624222 245.143897 
L 400.13731 245.295593 
L 400.650397 245.447413 
L 401.163485 245.599356 
L 401.676573 245.751419 
L 402.189661 245.903601 
L 402.702749 246.0559 
L 403.215837 246.208315 
L 403.728925 246.360843 
L 404.242012 246.513484 
L 404.7551 246.666235 
L 405.268188 246.819095 
L 405.781276 246.972063 
L 406.294364 247.125138 
L 406.807452 247.278317 
L 407.32054 247.4316 
L 407.833627 247.584985 
L 408.346715 247.738471 
L 408.859803 247.892056 
L 409.372891 248.04574 
L 409.885979 248.199522 
L 410.399067 248.353399 
L 410.912155 248.507372 
L 411.425242 248.661438 
L 411.93833 248.815598 
L 412.451418 248.969849 
L 412.964506 249.124191 
L 413.477594 249.278622 
L 413.990682 249.433143 
L 414.50377 249.587751 
" style="fill: none; stroke: #7884b4; stroke-width: 1.05; stroke-linecap: square"/>
   </g>
   <g id="text_1">
    <text style="font-weight: 700; font-size: 9px; font-family: 'Microsoft YaHei', 'SimHei', 'Noto Sans CJK SC', 'Source Han Sans SC', 'Arial', 'DejaVu Sans', 'Liberation Sans', sans-serif; text-anchor: start; fill: #3d3d3d" x="7.2" y="14.394375" transform="rotate(-0 7.2 14.394375)">a</text>
   </g>
   <g id="text_2">
    <text style="font-weight: 700; font-size: 8px; font-family: 'Microsoft YaHei', 'SimHei', 'Noto Sans CJK SC', 'Source Han Sans SC', 'Arial', 'DejaVu Sans', 'Liberation Sans', sans-serif; text-anchor: start; fill: #0f4d92" x="73.24416" y="103.748764" transform="rotate(-0 73.24416 103.748764)">反作用轮</text>
   </g>
   <g id="text_3">
    <text style="font-size: 5.8px; font-family: 'Microsoft YaHei', 'SimHei', 'Noto Sans CJK SC', 'Source Han Sans SC', 'Arial', 'DejaVu Sans', 'Liberation Sans', sans-serif; text-anchor: start; fill: #8a8a8a" x="73.24416" y="115.083924" transform="rotate(-0 73.24416 115.083924)">轴承摩擦与热漂移</text>
   </g>
   <g id="text_4">
    <text style="font-weight: 700; font-size: 6.1px; font-family: 'Microsoft YaHei', 'SimHei', 'Noto Sans CJK SC', 'Source Han Sans SC', 'Arial', 'DejaVu Sans', 'Liberation Sans', sans-serif; fill: #3d3d3d" transform="translate(219.0784 136.813343)">摩擦升高</text>
    <text style="font-weight: 700; font-size: 6.1px; font-family: 'Microsoft YaHei', 'SimHei', 'Noto Sans CJK SC', 'Source Han Sans SC', 'Arial', 'DejaVu Sans', 'Liberation Sans', sans-serif; fill: #3d3d3d" transform="translate(209.9284 143.93738)">转速稳定性下降</text>
   </g>
   <g id="text_5">
    <text style="font-size: 5.4px; font-family: 'Microsoft YaHei', 'SimHei', 'Noto Sans CJK SC', 'Source Han Sans SC', 'Arial', 'DejaVu Sans', 'Liberation Sans', sans-serif; text-anchor: start; fill: #3d3d3d" x="308.031149" y="117.033751" transform="rotate(-0 308.031149 117.033751)">电流 ↑</text>
   </g>
   <g id="text_6">
    <text style="font-size: 5.4px; font-family: 'Microsoft YaHei', 'SimHei', 'Noto Sans CJK SC', 'Source Han Sans SC', 'Arial', 'DejaVu Sans', 'Liberation Sans', sans-serif; text-anchor: start; fill: #3d3d3d" x="369.357869" y="117.033751" transform="rotate(-0 369.357869 117.033751)">温度 ↑</text>
   </g>
   <g id="text_7">
    <text style="font-size: 5.4px; font-family: 'Microsoft YaHei', 'SimHei', 'Noto Sans CJK SC', 'Source Han Sans SC', 'Arial', 'DejaVu Sans', 'Liberation Sans', sans-serif; text-anchor: start; fill: #3d3d3d" x="308.031149" y="150.203251" transform="rotate(-0 308.031149 150.203251)">转速误差 ↑</text>
   </g>
   <g id="text_8">
    <text style="font-size: 5.4px; font-family: 'Microsoft YaHei', 'SimHei', 'Noto Sans CJK SC', 'Source Han Sans SC', 'Arial', 'DejaVu Sans', 'Liberation Sans', sans-serif; text-anchor: start; fill: #3d3d3d" x="369.357869" y="150.203251" transform="rotate(-0 369.357869 150.203251)">振动代理 ↑</text>
   </g>
   <g id="text_9">
    <text style="font-weight: 700; font-size: 5.9px; font-family: 'Microsoft YaHei', 'SimHei', 'Noto Sans CJK SC', 'Source Han Sans SC', 'Arial', 'DejaVu Sans', 'Liberation Sans', sans-serif; fill: #3d3d3d" transform="translate(469.50272 136.875052)">滑窗遥测</text>
    <text style="font-weight: 700; font-size: 5.9px; font-family: 'Microsoft YaHei', 'SimHei', 'Noto Sans CJK SC', 'Source Han Sans SC', 'Arial', 'DejaVu Sans', 'Liberation Sans', sans-serif; fill: #3d3d3d" transform="translate(465.610564 143.765515)">→ RUL标签</text>
   </g>
   <g id="text_10">
    <text style="font-weight: 700; font-size: 8px; font-family: 'Microsoft YaHei', 'SimHei', 'Noto Sans CJK SC', 'Source Han Sans SC', 'Arial', 'DejaVu Sans', 'Liberation Sans', sans-serif; text-anchor: start; fill: #7884b4" x="73.24416" y="191.316244" transform="rotate(-0 73.24416 191.316244)">卫星电池</text>
   </g>
   <g id="text_11">
    <text style="font-size: 5.8px; font-family: 'Microsoft YaHei', 'SimHei', 'Noto Sans CJK SC', 'Source Han Sans SC', 'Arial', 'DejaVu Sans', 'Liberation Sans', sans-serif; text-anchor: start; fill: #8a8a8a" x="73.24416" y="202.651404" transform="rotate(-0 73.24416 202.651404)">容量衰减与内阻增长</text>
   </g>
   <g id="text_12">
    <text style="font-weight: 700; font-size: 5.8px; font-family: 'Microsoft YaHei', 'SimHei', 'Noto Sans CJK SC', 'Source Han Sans SC', 'Arial', 'DejaVu Sans', 'Liberation Sans', sans-serif; text-anchor: middle" x="134.57088" y="227.860224" transform="rotate(-0 134.57088 227.860224)">Li-ion</text>
   </g>
   <g id="text_13">
    <text style="font-weight: 700; font-size: 6.1px; font-family: 'Microsoft YaHei', 'SimHei', 'Noto Sans CJK SC', 'Source Han Sans SC', 'Arial', 'DejaVu Sans', 'Liberation Sans', sans-serif; fill: #3d3d3d" transform="translate(219.0784 224.380823)">容量下降</text>
    <text style="font-weight: 700; font-size: 6.1px; font-family: 'Microsoft YaHei', 'SimHei', 'Noto Sans CJK SC', 'Source Han Sans SC', 'Arial', 'DejaVu Sans', 'Liberation Sans', sans-serif; fill: #3d3d3d" transform="translate(219.0784 231.50486)">内阻升高</text>
   </g>
   <g id="text_14">
    <text style="font-size: 5.4px; font-family: 'Microsoft YaHei', 'SimHei', 'Noto Sans CJK SC', 'Source Han Sans SC', 'Arial', 'DejaVu Sans', 'Liberation Sans', sans-serif; text-anchor: start; fill: #3d3d3d" x="308.031149" y="204.601231" transform="rotate(-0 308.031149 204.601231)">电压跌落 ↑</text>
   </g>
   <g id="text_15">
    <text style="font-size: 5.4px; font-family: 'Microsoft YaHei', 'SimHei', 'Noto Sans CJK SC', 'Source Han Sans SC', 'Arial', 'DejaVu Sans', 'Liberation Sans', sans-serif; text-anchor: start; fill: #3d3d3d" x="369.357869" y="204.601231" transform="rotate(-0 369.357869 204.601231)">电流周期</text>
   </g>
   <g id="text_16">
    <text style="font-size: 5.4px; font-family: 'Microsoft YaHei', 'SimHei', 'Noto Sans CJK SC', 'Source Han Sans SC', 'Arial', 'DejaVu Sans', 'Liberation Sans', sans-serif; text-anchor: start; fill: #3d3d3d" x="308.031149" y="237.770731" transform="rotate(-0 308.031149 237.770731)">温度 ↑</text>
   </g>
   <g id="text_17">
    <text style="font-size: 5.4px; font-family: 'Microsoft YaHei', 'SimHei', 'Noto Sans CJK SC', 'Source Han Sans SC', 'Arial', 'DejaVu Sans', 'Liberation Sans', sans-serif; text-anchor: start; fill: #3d3d3d" x="369.357869" y="237.770731" transform="rotate(-0 369.357869 237.770731)">RUL ↓</text>
   </g>
   <g id="text_18">
    <text style="font-weight: 700; font-size: 5.9px; font-family: 'Microsoft YaHei', 'SimHei', 'Noto Sans CJK SC', 'Source Han Sans SC', 'Arial', 'DejaVu Sans', 'Liberation Sans', sans-serif; fill: #3d3d3d" transform="translate(469.50272 224.442532)">滑窗遥测</text>
    <text style="font-weight: 700; font-size: 5.9px; font-family: 'Microsoft YaHei', 'SimHei', 'Noto Sans CJK SC', 'Source Han Sans SC', 'Arial', 'DejaVu Sans', 'Liberation Sans', sans-serif; fill: #3d3d3d" transform="translate(465.610564 231.332995)">→ RUL标签</text>
   </g>
   <g id="text_19">
    <text style="font-size: 6.2px; font-family: 'Microsoft YaHei', 'SimHei', 'Noto Sans CJK SC', 'Source Han Sans SC', 'Arial', 'DejaVu Sans', 'Liberation Sans', sans-serif; text-anchor: middle; fill: #8a8a8a" x="120.41856" y="77.663599" transform="rotate(-0 120.41856 77.663599)">组件</text>
   </g>
   <g id="text_20">
    <text style="font-size: 6.2px; font-family: 'Microsoft YaHei', 'SimHei', 'Noto Sans CJK SC', 'Source Han Sans SC', 'Arial', 'DejaVu Sans', 'Liberation Sans', sans-serif; text-anchor: middle; fill: #8a8a8a" x="233.63712" y="77.663599" transform="rotate(-0 233.63712 77.663599)">退化驱动</text>
   </g>
   <g id="text_21">
    <text style="font-size: 6.2px; font-family: 'Microsoft YaHei', 'SimHei', 'Noto Sans CJK SC', 'Source Han Sans SC', 'Arial', 'DejaVu Sans', 'Liberation Sans', sans-serif; text-anchor: middle; fill: #8a8a8a" x="351.57312" y="77.663599" transform="rotate(-0 351.57312 77.663599)">可观测遥测特征</text>
   </g>
   <g id="text_22">
    <text style="font-size: 6.2px; font-family: 'Microsoft YaHei', 'SimHei', 'Noto Sans CJK SC', 'Source Han Sans SC', 'Arial', 'DejaVu Sans', 'Liberation Sans', sans-serif; text-anchor: middle; fill: #8a8a8a" x="481.30272" y="77.663599" transform="rotate(-0 481.30272 77.663599)">预测目标</text>
   </g>
   <g id="text_23">
    <text style="font-size: 5.9px; font-family: 'Microsoft YaHei', 'SimHei', 'Noto Sans CJK SC', 'Source Han Sans SC', 'Arial', 'DejaVu Sans', 'Liberation Sans', sans-serif; text-anchor: start; fill: #3d3d3d" x="73.24416" y="283.314499" transform="rotate(-0 73.24416 283.314499)">仿真任务不是瞬时故障分类：两个目标域均包含长期运行、渐进退化和故障/应力变体。</text>
   </g>
  </g>
  <g id="text_24">
   <text style="font-size: 10px; font-family: 'Microsoft YaHei', 'SimHei', 'Noto Sans CJK SC', 'Source Han Sans SC', 'Arial', 'DejaVu Sans', 'Liberation Sans', sans-serif; text-anchor: middle" x="284.12928" y="16.959629" transform="rotate(-0 284.12928 16.959629)">机理驱动仿真将航天退化过程转化为模型可见的遥测特征</text>
  </g>
 </g>
 <defs>
  <clipPath id="pc0449c009a">
   <rect x="63.80928" y="32.553079" width="471.744" height="265.356"/>
  </clipPath>
 </defs>
</svg>
